HIERARCHY
ROOT Hips
{
	OFFSET -6.583065 104.355759 -1.477566
	CHANNELS 6 Xposition Yposition Zposition Xrotation Yrotation Zrotation
	JOINT Chest
	{
		OFFSET 1.947950 13.440147 1.312301
		CHANNELS 3 Xrotation Yrotation Zrotation
		JOINT Chest2
		{
			OFFSET 0.727180 20.867043 4.806705
			CHANNELS 3 Xrotation Yrotation Zrotation
			JOINT Chest3
			{
				OFFSET -0.360484 14.922714 0.049319
				CHANNELS 3 Xrotation Yrotation Zrotation
				JOINT Neck
				{
					OFFSET -1.816531 16.807007 3.583415
					CHANNELS 3 Xrotation Yrotation Zrotation
					JOINT Head
					{
						OFFSET -2.908383 8.895462 4.715916
						CHANNELS 3 Xrotation Yrotation Zrotation
						End Site
						{
							OFFSET -2.950796 8.911652 4.658650
						}
					}
				}
				JOINT LeftCollar
				{
					OFFSET 3.352820 13.761169 1.092334
					CHANNELS 3 Xrotation Yrotation Zrotation
					JOINT LeftUpArm
					{
						OFFSET -0.693355 8.704834 -15.239569
						CHANNELS 3 Xrotation Yrotation Zrotation
						JOINT LeftLowArm
						{
							OFFSET 0.546933 31.669281 -11.682676
							CHANNELS 3 Xrotation Yrotation Zrotation
							JOINT LeftHand
							{
								OFFSET -19.740007 1.116531 22.583910
								CHANNELS 3 Xrotation Yrotation Zrotation
								End Site
								{
									OFFSET -4.314299 0.244049 4.935839
								}
							}
						}
					}
				}
				JOINT RightCollar
				{
					OFFSET -1.436499 11.826843 7.737626
					CHANNELS 3 Xrotation Yrotation Zrotation
					JOINT RightUpArm
					{
						OFFSET -11.416099 -4.437927 12.588634
						CHANNELS 3 Xrotation Yrotation Zrotation
						JOINT RightLowArm
						{
							OFFSET 24.757961 -10.558838 20.378628
							CHANNELS 3 Xrotation Yrotation Zrotation
							JOINT RightHand
							{
								OFFSET 25.019156 16.004868 4.340549
								CHANNELS 3 Xrotation Yrotation Zrotation
								End Site
								{
									OFFSET 5.468174 3.498047 0.948662
								}
							}
						}
					}
				}
			}
		}
	}
	JOINT LeftUpLeg
	{
		OFFSET 8.553776 -0.735321 -5.168304
		CHANNELS 3 Xrotation Yrotation Zrotation
		JOINT LeftLowLeg
		{
			OFFSET 8.632231 -44.645863 13.274798
			CHANNELS 3 Xrotation Yrotation Zrotation
			JOINT LeftFoot
			{
				OFFSET -25.677814 -35.065880 -10.564159
				CHANNELS 3 Xrotation Yrotation Zrotation
				JOINT LeftToe
				{
					OFFSET -7.746336 -21.848486 4.711409
					CHANNELS 3 Xrotation Yrotation Zrotation
					End Site
					{
						OFFSET 3.811188 -17.915871 14.968475
					}
				}
			}
		}
	}
	JOINT RightUpLeg
	{
		OFFSET -8.553806 0.735123 5.168286
		CHANNELS 3 Xrotation Yrotation Zrotation
		JOINT RightLowLeg
		{
			OFFSET -0.018669 -47.180630 -4.242560
			CHANNELS 3 Xrotation Yrotation Zrotation
			JOINT RightFoot
			{
				OFFSET -0.066502 -40.901257 -18.101437
				CHANNELS 3 Xrotation Yrotation Zrotation
				JOINT RightToe
				{
					OFFSET 7.213423 -21.636702 6.275050
					CHANNELS 3 Xrotation Yrotation Zrotation
					End Site
					{
						OFFSET 8.198462 -11.803709 18.788660
					}
				}
			}
		}
	}
}
MOTION
Frames: 14
Frame Time: 0.033333
-7.558240 100.710068 -2.216506 1.423543 5.123166 -6.836060 5.644765 -0.866672 1.706911 -1.456651 -4.764900 8.428926 -2.447966 3.658843 -1.585728 -2.949771 -5.894064 6.595151 -0.000000 0.000002 0.000001 3.389954 0.164661 3.635878 0.453497 1.333088 3.857410 -8.573829 -3.105131 -5.914230 0.000001 -0.000002 -0.000002 -5.656210 -0.770216 -1.243314 -18.842655 2.698200 10.242166 11.705900 -29.757150 -14.707945 0.000002 0.000007 -0.000004 -7.378436 0.084470 18.410321 -8.878553 1.591408 -78.451983 32.201449 -4.380932 -6.277752 -0.000000 0.000002 -0.000004 -9.429191 -0.834146 11.290395 13.220447 2.747494 -1.090626 -21.309149 -17.167175 -4.822702 -0.000000 -0.000001 -0.000000 
-7.554398 100.599861 -2.209132 0.827215 5.197278 -6.855155 6.512778 -0.947763 1.749099 -1.293677 -4.822210 8.369827 -2.671265 3.462680 -1.603834 -2.225690 -6.089925 6.156642 -0.000001 0.000004 -0.000000 4.755260 -0.253610 4.546313 3.641327 -0.291812 3.430082 -7.842740 -1.170301 -9.907521 0.000004 -0.000002 -0.000002 -5.411596 -0.397151 -0.724689 -17.842624 2.686520 10.753312 12.079942 -26.830942 -13.675960 0.000002 0.000003 -0.000007 -7.458968 0.021844 18.411975 -10.161549 3.566609 -78.475609 33.182698 -4.494676 -6.484058 -0.000000 0.000001 -0.000004 -9.264152 -0.864634 11.562826 13.641642 3.085623 -1.237972 -21.581847 -17.488623 -4.864494 0.000004 0.000003 0.000001 
-7.552902 100.499023 -2.204776 0.859138 5.312359 -6.779400 6.835438 -0.957519 1.754846 -1.661406 -4.591695 8.174441 -2.547983 3.090768 -1.568328 -2.250091 -6.113891 6.112661 -0.000003 0.000003 0.000002 5.819456 -0.731978 4.686607 5.940191 -1.025603 3.263241 -8.409968 -0.676256 -11.949347 0.000001 -0.000003 0.000001 -5.621853 -0.171334 -0.800995 -17.587935 2.425026 10.608913 12.275924 -26.638175 -13.624336 0.000003 0.000002 -0.000005 -7.278449 0.089415 18.276601 -9.590307 2.613138 -78.454490 33.436518 -4.726107 -6.599806 0.000002 -0.000004 -0.000000 -9.492254 -0.901835 11.716518 14.161219 3.221940 -1.542233 -21.454597 -17.341823 -4.769429 -0.000001 -0.000002 -0.000000 
-7.559296 100.392723 -2.210900 1.132650 5.249661 -6.842206 6.383140 -0.849791 1.643581 -1.155947 -4.876794 8.388195 -2.892806 3.358332 -1.735772 -2.021040 -6.380973 6.005589 -0.000002 0.000005 0.000003 7.462964 -1.359017 5.254201 7.443705 -2.085795 2.828933 -8.542557 0.224122 -14.586333 0.000001 -0.000002 0.000003 -5.812205 -0.026179 -0.667462 -16.700945 2.139282 10.459268 12.423510 -25.541598 -13.138568 0.000003 0.000004 -0.000004 -7.891137 -0.102181 18.476106 -9.794765 3.025368 -78.467467 33.582107 -5.108234 -6.899729 0.000003 0.000005 -0.000005 -10.204712 -0.900793 12.009476 14.513346 3.304484 -1.855351 -21.267947 -17.397381 -4.979261 0.000006 0.000000 0.000001 
-7.569812 100.287987 -2.212369 0.964239 5.271671 -6.969306 6.897843 -0.933352 1.590247 -1.049314 -4.947096 8.494083 -3.123963 3.306382 -1.722824 -2.062004 -6.194182 5.965679 -0.000002 0.000004 0.000005 7.988057 -1.257041 5.374372 9.520123 -2.589374 2.062202 -10.140374 0.123255 -14.824639 0.000000 0.000005 0.000001 -5.924338 0.319004 -1.036278 -17.129819 1.789797 9.900418 11.509948 -25.375842 -12.924169 0.000002 0.000003 -0.000007 -8.269426 -0.189039 18.830015 -10.102308 3.703877 -78.390334 33.675295 -5.268292 -6.966055 -0.000000 0.000000 -0.000001 -10.038496 -0.951765 12.515881 15.182647 3.301005 -2.315117 -22.125981 -17.648531 -4.854174 -0.000001 0.000000 -0.000001 
-7.579258 100.181618 -2.218411 1.304707 5.186143 -7.037062 6.421836 -0.881472 1.589223 -0.567458 -5.114634 8.576615 -3.461909 3.236954 -1.859601 -2.008847 -6.130977 5.953052 -0.000006 0.000003 0.000003 9.036587 -1.405048 5.549607 11.112916 -2.841158 1.721488 -11.347933 0.431499 -15.887088 0.000004 -0.000001 0.000001 -6.105580 0.478517 -1.324729 -17.433515 1.860063 9.755910 11.165283 -26.007661 -13.165754 -0.000000 0.000005 -0.000002 -8.608080 -0.245110 18.989756 -9.037355 2.003164 -78.472713 33.618014 -5.377495 -6.950701 0.000002 0.000002 -0.000004 -11.066989 -0.992842 12.587117 15.989901 3.277286 -2.302869 -22.199822 -17.655045 -4.761070 0.000004 -0.000000 -0.000000 
-7.597325 100.096375 -2.222721 1.106085 4.654154 -7.008849 7.258798 -1.039948 1.433386 -0.831304 -4.927179 8.465898 -3.337728 3.484590 -1.732847 -2.145902 -5.847006 5.920468 0.000001 0.000003 -0.000001 9.612483 -1.049856 5.477882 11.628890 -2.122019 1.367702 -13.493339 -0.372913 -14.686582 0.000001 -0.000002 -0.000000 -5.866400 0.874794 -1.784096 -19.434204 2.060774 9.538053 10.492307 -28.344378 -14.238453 0.000003 0.000003 -0.000003 -8.397187 -0.166945 19.121369 -9.447622 2.867448 -78.526371 33.263387 -5.170785 -6.735946 -0.000000 -0.000002 -0.000002 -10.429847 -0.971052 12.525295 15.389408 3.012564 -2.562309 -21.979528 -17.216718 -4.463841 0.000004 0.000000 -0.000002 
-7.627565 100.000900 -2.232831 1.325768 4.629769 -7.282696 7.051223 -0.949565 1.445691 -1.141775 -5.008859 8.675340 -3.199633 3.226444 -1.882772 -2.511132 -5.919868 5.998240 -0.000002 0.000006 0.000002 9.675001 -1.383214 5.862167 13.276228 -3.362281 1.391526 -13.225599 0.203810 -16.778189 0.000004 -0.000002 -0.000000 -5.966389 1.063146 -1.371355 -18.466403 1.808146 9.846889 10.713308 -25.352470 -13.244507 0.000003 0.000000 -0.000006 -8.650038 -0.193044 19.392932 -10.548112 4.716423 -78.815404 33.636974 -4.617981 -6.389574 0.000002 -0.000001 -0.000003 -10.359307 -1.005134 12.518531 15.032900 3.045594 -2.053301 -22.160132 -17.392553 -4.344942 0.000003 0.000001 -0.000000 
-7.656042 99.909683 -2.243264 0.397037 3.866281 -7.406595 8.304137 -1.086681 1.131940 -1.186851 -5.026197 8.728322 -3.283074 3.769182 -1.620896 -2.559246 -5.878564 5.843401 -0.000002 0.000002 0.000001 10.369395 -1.294084 6.318238 13.688337 -3.722509 1.130958 -13.368471 0.514214 -17.598802 -0.000001 -0.000001 0.000001 -5.841644 1.464334 -1.290866 -18.775497 1.609604 9.838713 10.796413 -25.025361 -12.999411 -0.000000 0.000003 -0.000003 -8.269408 -0.141602 19.555919 -11.410050 6.164599 -78.871705 33.428517 -4.760689 -6.452427 0.000002 0.000000 -0.000001 -9.516041 -0.983596 12.536548 15.300665 3.077930 -2.068095 -21.751391 -16.862743 -3.848873 -0.000001 -0.000000 -0.000002 
-7.691072 99.812309 -2.256949 1.414280 3.892332 -7.771005 6.799741 -0.870085 1.299617 -0.440270 -5.441295 9.090505 -3.475843 4.476074 -1.800094 -2.416350 -6.467160 6.213561 -0.000001 0.000006 0.000002 11.329832 -1.838036 6.533261 13.783364 -4.362528 0.943650 -13.911993 0.056847 -17.642508 0.000003 -0.000002 -0.000000 -6.238037 0.417365 -1.258582 -17.948784 1.897060 10.131883 10.696148 -24.217059 -12.528901 0.000004 0.000002 -0.000003 -9.756387 -0.449707 19.523479 -12.567971 8.213629 -78.751036 33.008030 -5.009817 -6.664885 -0.000000 -0.000001 -0.000003 -11.044604 -1.070283 12.663452 16.112018 3.011380 -1.536348 -22.535057 -17.228855 -3.955561 0.000004 0.000000 0.000002 
-7.732512 99.718636 -2.267567 2.386213 4.102871 -8.007947 5.412684 -0.668678 1.339027 0.444801 -5.746186 9.242726 -3.772345 4.623082 -1.881114 -2.132007 -6.854139 6.442453 -0.000001 0.000000 0.000003 11.380035 -1.856395 6.585243 13.319286 -4.242754 1.000212 -14.324181 -0.375337 -17.281980 0.000003 -0.000003 0.000001 -6.267381 0.130697 -1.237057 -17.954875 1.851368 10.162840 10.546080 -23.477237 -11.983044 0.000005 0.000002 -0.000003 -10.762192 -0.684989 19.316967 -13.973655 10.541610 -78.432988 33.284567 -4.911100 -6.565384 -0.000001 -0.000006 -0.000003 -12.044864 -1.060357 12.617390 16.305361 2.950972 -0.906010 -22.568297 -17.461898 -4.270364 0.000005 0.000001 0.000000 
-7.772730 99.626457 -2.281857 2.370493 3.942835 -8.288225 5.470090 -0.678766 1.447675 0.451752 -5.841776 9.351209 -3.812440 4.470227 -1.929699 -2.061624 -6.932128 6.327424 -0.000002 0.000004 0.000001 11.082601 -1.811002 6.764427 14.227877 -5.097430 0.900887 -13.803620 -0.161164 -18.110294 0.000002 0.000000 -0.000002 -6.461230 0.624145 -1.111916 -17.572052 1.989471 10.530384 10.722831 -22.533253 -11.313270 0.000001 0.000002 -0.000003 -11.092693 -0.720060 19.367322 -14.259887 11.100936 -78.257992 33.328014 -4.712690 -6.342501 -0.000000 0.000000 -0.000005 -12.157726 -1.151105 12.827532 16.491167 2.863096 -0.774849 -22.202981 -17.196340 -4.112814 0.000004 0.000000 -0.000001 
-7.811665 99.536163 -2.295169 2.081997 3.839841 -8.457529 5.761943 -0.779045 1.529663 0.470748 -5.787484 9.325933 -3.817851 4.760506 -1.777846 -1.915318 -6.910501 6.461880 -0.000000 0.000005 -0.000000 11.758620 -1.784119 6.465922 14.525943 -4.610780 0.448180 -15.495391 -1.217147 -16.140990 0.000003 -0.000004 -0.000000 -6.340875 0.309582 -1.570801 -18.516752 2.422628 10.363275 9.876667 -24.336901 -11.590504 0.000003 0.000000 -0.000004 -11.163656 -0.712102 19.325180 -14.112667 10.807022 -78.100754 33.101767 -4.712736 -6.430509 0.000003 -0.000003 -0.000003 -12.247361 -1.132441 13.004725 16.770515 2.862557 -0.647294 -22.895474 -17.409993 -4.088758 0.000004 -0.000001 -0.000000 
-7.853635 99.453300 -2.318043 1.730478 3.253250 -8.443439 6.087139 -0.793758 1.284073 0.253029 -5.642304 9.258113 -3.610989 4.671379 -1.808759 -2.134823 -6.690031 6.276562 -0.000003 0.000003 0.000003 11.655970 -1.495901 6.508140 14.826047 -4.749238 -0.154925 -15.624210 -1.261388 -15.281059 0.000005 -0.000002 -0.000000 -6.281738 1.108685 -1.760393 -19.410916 2.206851 10.067018 9.553550 -25.419218 -11.646662 0.000002 0.000002 -0.000005 -10.888387 -0.736048 19.515888 -14.513160 11.522497 -77.927247 32.325503 -5.158254 -6.707887 0.000003 -0.000001 -0.000003 -11.346649 -1.036031 13.041013 16.363279 2.739558 -0.754454 -22.957936 -17.265023 -3.998347 0.000005 0.000000 0.000001 
